<svg width="450" height="250" viewBox="0 0 450 250" fill="none" xmlns="http://www.w3.org/2000/svg">
<path d="M0 10C0 4.47716 4.47715 0 10 0H440C445.523 0 450 4.47715 450 10V240C450 245.523 445.523 250 440 250H10C4.47715 250 0 245.523 0 240V10Z" fill="#D9D9D9"/>
<path d="M0 10C0 4.47716 4.47715 0 10 0H440C445.523 0 450 4.47715 450 10V62.5H0V10Z" fill="#FF3F3F"/>
<path d="M0 62H450V124.5H0V62Z" fill="#2F8CF9"/>
<path d="M0 124H450V186.5H0V124Z" fill="#FAFF00"/>
<path d="M0 186H450V238.5C450 244.023 445.523 248.5 440 248.5H10C4.47715 248.5 0 244.023 0 238.5V186Z" fill="#00FF19"/>
</svg>
